# xmcd
#
# Track frame offsets:
#	150
#	29991
#	47231
#	62180
#	77644
#	94083
#	111943
#	128459
#	151023
#	164899
#	180645
#	194839
#	209613
#	221920
#	235847
#	253186
#	269124
#	285459
#	301223
#	319225
#	335828
#
# Disc length: 4719 seconds
#
# Revision: 0
# Processed by: cddbd v1.5.1PL2 Copyright (c) Steve Scherf et al.
# Submitted via: EasyCDDAExtractor 8.0.0.2
#
DISCID=52126d15
DTITLE=Various Artist - VIVA 13
DYEAR=1900
DGENRE=
TTITLE0=INFERNAL FT. DJ ALLIGATOR - FROM PARIS TO BERLIN
TTITLE1=DESPINA VANDI FT. PHOEBUS - COME ALONG NOW
TTITLE2=KYLIE MINOGUE - I BELIEVE IN YOU
TTITLE3=DJ CASPER FT. THE GAP BAND - OOPS UPSIDE YOUR HEAD
TTITLE4=GWEN STEFANI (NO DOUBT) - WHAT YOU WAITING FOR
TTITLE5=K'MARO - FEMME LIKE YOU
TTITLE6=COLAGERO ET PASSI - FACE A LA MER
TTITLE7=DARREN HAYES - I LIKE THE WAY
TTITLE8=DANZEL - YOU ARE ALL OF THAT
TTITLE9=ANASTACIA - SICK AND TIRED
TTITLE10=ARASH - BORO BORO
TTITLE11=SCOOTER - SHAKE THAT
TTITLE12=ERIC PRYDZ - CALL ON ME
TTITLE13=AVENTURA - CUANDO VOLVERAS
TTITLE14=ROBBIE WILLIAMS - RADIO
TTITLE15=BRITNEY SPEARS - MY PREROGATIVE
TTITLE16=BLUE - CAPTAIN FALLS
TTITLE17=ALEXANDER - HERE I AM
TTITLE18=MAROON 5 - SHE WILL BE LOVED
TTITLE19=BAD BOYS BLUE and DJ SKYDREAMER - COLD AS ICE
TTITLE20=THOMAS ANDERS - JUST DREAM
EXTD=
EXTT0=
EXTT1=
EXTT2=
EXTT3=
EXTT4=
EXTT5=
EXTT6=
EXTT7=
EXTT8=
EXTT9=
EXTT10=
EXTT11=
EXTT12=
EXTT13=
EXTT14=
EXTT15=
EXTT16=
EXTT17=
EXTT18=
EXTT19=
EXTT20=
PLAYORDER=
